<svg id="Layer_1" data-name="Layer 1" xmlns="http://www.w3.org/2000/svg" xmlns:xlink="http://www.w3.org/1999/xlink" viewBox="0 0 1058 392"><defs><style>.cls-1{fill:none;}.cls-2{fill:url(#linear-gradient);}.cls-3{fill:url(#linear-gradient-2);}.cls-4{fill:url(#linear-gradient-3);}.cls-5{fill:url(#linear-gradient-4);}.cls-6{fill:url(#linear-gradient-5);}.cls-7{fill:url(#linear-gradient-6);}.cls-8{fill:url(#linear-gradient-7);}.cls-9{fill:url(#linear-gradient-8);}</style><linearGradient id="linear-gradient" x1="194.8" y1="198" x2="510.37" y2="580.98" gradientUnits="userSpaceOnUse"><stop offset="0" stop-color="#217be7"/><stop offset="0.65" stop-color="#7e27d8"/></linearGradient><linearGradient id="linear-gradient-2" x1="340.87" y1="77.64" x2="656.44" y2="460.62" xlink:href="#linear-gradient"/><linearGradient id="linear-gradient-3" x1="481" y1="-37.82" x2="796.57" y2="345.15" xlink:href="#linear-gradient"/><linearGradient id="linear-gradient-4" x1="380.34" y1="45.12" x2="695.91" y2="428.1" xlink:href="#linear-gradient"/><linearGradient id="linear-gradient-5" x1="393.1" y1="34.6" x2="708.68" y2="417.58" xlink:href="#linear-gradient"/><linearGradient id="linear-gradient-6" x1="416.67" y1="15.18" x2="732.25" y2="398.16" xlink:href="#linear-gradient"/><linearGradient id="linear-gradient-7" x1="551.84" y1="-96.2" x2="867.42" y2="286.78" xlink:href="#linear-gradient"/><linearGradient id="linear-gradient-8" x1="599.6" y1="-135.55" x2="915.17" y2="247.43" xlink:href="#linear-gradient"/></defs><title>gc-logo-gradient-standalone</title><rect class="cls-1" width="1058" height="392"/><path class="cls-2" d="M270.25,120.5h39s-22-83-128-83-139,95-139,143,18,103,70,132,121,23,158-21l12,32h27v-149h-130v29h92s-5,61-60,88-119-12-125-86,27-130,78-137S254.25,79.5,270.25,120.5Z"/><path class="cls-3" d="M455.25,41.5v50s-68,12-76,81c0,0-11,83,76,104v49s-122-10-129-142C326.25,183.5,320.25,67.5,455.25,41.5Z"/><path class="cls-4" d="M762.25,252.5a51,51,0,1,0,51,51A51,51,0,0,0,762.25,252.5ZM762,337a33.25,33.25,0,1,1,33.25-33.25A33.25,33.25,0,0,1,762,337Z"/><path class="cls-5" d="M621.55,320.8a33.26,33.26,0,1,1-.82-35.39l13.61-12.11a51,51,0,1,0,0,60.34Z"/><path class="cls-6" d="M589.73,235.82a67.38,67.38,0,0,1,11.35,1l.17-.29s31-61-15-134c0,0-34-50-91-58v51s36,8,56,49,2,113-56,129v52s11.68-1.92,28.59-10.69a67.91,67.91,0,0,1-1.09-12A67,67,0,0,1,589.73,235.82Z"/><polygon class="cls-7" points="709.75 350.5 646.25 350.5 646.25 256.5 662.25 256.5 662.25 334.5 709.75 334.5 709.75 350.5"/><path class="cls-8" d="M896.75,256v53s2,26-25,26-25-26-25-26V256h-18v54c0,45,43,44,43,44s43,1,43-44V256Z"/><path class="cls-9" d="M967.75,256h-37v96h33s52,2,52-45S982.75,256,967.75,256Zm-.67,81H948.25V270.82h21.11c8.56,0,27.39,2.76,27.39,35.15S967.08,337,967.08,337Z"/></svg>